<svg width="96" height="96" class="icon" viewBox="0 0 1024 1024"><path fill="currentColor" d="M618.667 288a32 32 0 0 1 0 64H320a32 32 0 0 1 0-64zM704 480a32 32 0 0 1 0 64H320a32 32 0 0 1 0-64zM533.333 672a32 32 0 0 1 0 64H320a32 32 0 0 1 0-64z"/><path fill="currentColor" d="M768 85.333a128 128 0 0 1 128 128v597.334a128 128 0 0 1-128 128H256a128 128 0 0 1-128-128V213.333a128 128 0 0 1 128-128zm0 64H256a64 64 0 0 0-64 64v597.334a64 64 0 0 0 64 64h512a64 64 0 0 0 64-64V213.333a64 64 0 0 0-64-64"/></svg>