<?xml version="1.0" standalone="no"?><!DOCTYPE svg PUBLIC "-//W3C//DTD SVG 1.1//EN" "http://www.w3.org/Graphics/SVG/1.1/DTD/svg11.dtd"><svg t="1724325856794" class="icon" viewBox="0 0 1024 1024" version="1.1" xmlns="http://www.w3.org/2000/svg" p-id="8656" width="160" height="160" xmlns:xlink="http://www.w3.org/1999/xlink"><path d="M512 938.666667c235.648 0 426.666667-191.018667 426.666667-426.666667S747.648 85.333333 512 85.333333 85.333333 276.352 85.333333 512s191.018667 426.666667 426.666667 426.666667z m0 85.333333C229.248 1024 0 794.752 0 512S229.248 0 512 0s512 229.248 512 512-229.248 512-512 512z m-42.666667-597.333333v341.333333a42.666667 42.666667 0 0 0 85.333334 0v-341.333333a42.666667 42.666667 0 0 0-85.333334 0z m42.666667-213.333334a42.666667 42.666667 0 0 0-42.666667 42.666667v42.666667a42.666667 42.666667 0 0 0 85.333334 0V256a42.666667 42.666667 0 0 0-42.666667-42.666667z" fill="#dbdbdb" p-id="8657"></path></svg>